:SAMPLES-PER-SECOND 30
:FULLY-SPECIFIED
:DEGREES
138
root  -47.1789 39.3993 -2.47003 174.151 9.06996 -179.938
RightUpLeg  16.368 -10.2567 -4.55095
RightLeg  17.3033 2.77901 1.92262
RightFoot  -21.2156 -0.274243 -1.53869
RightToes  1.74622e-010 0 -3.6325e-017
Spine  3.33531 1.70875 13.8462
Spine1  10.6125 4.68571 -9.12662
HEad  -9.60014 0.329266 -0.394914
LeftShoulder1  8.42358 -11.8311 -47.9419
LeftArm  -8.82634 29.7091 -30.2192
LeftForeArm  28.6719 -4.50124 -5.23449
LeftHand  -0.244104 0.0205437 5.32207
RightShoulder  6.75004 10.6443 41.4812
RightArm  11.1306 14.9226 35.0342
RightForeArm  -3.15018 33.185 7.54219
RightHand  -1.0171 1.43971 -17.356
LeftUpLeg  -17.6562 6.41124 3.72035
LeftLeg  3.70783 14.1436 -3.22878
LeftFoot  5.98807 0.658202 -4.62293
LeftToes  -3.34697e-010 -1.70107e-010 -9.05613e-011
139
root  -47.3366 39.1789 -4.11353 173.603 9.89319 179.17
RightUpLeg  17.8843 -8.66478 -6.03964
RightLeg  19.8845 2.91881 1.04801
RightFoot  -21.4891 0.0337398 1.99573
RightToes  1.74622e-010 0 -3.6325e-017
Spine  2.52802 2.49093 12.4619
Spine1  11.2078 5.36873 -8.74811
HEad  -9.3626 -0.10818 -0.324605
LeftShoulder1  8.37099 -11.6177 -48.3177
LeftArm  -8.78271 30.8911 -29.4124
LeftForeArm  28.5037 -5.40528 -5.2247
LeftHand  -0.244104 0.0205437 5.32207
RightShoulder  6.87615 10.7872 41.8581
RightArm  11.0349 12.6469 33.9296
RightForeArm  -3.64788 32.7374 7.44773
RightHand  -1.1212 2.00672 -17.6766
LeftUpLeg  -17.9242 9.36331 0.82401
LeftLeg  8.79156 9.82489 -1.16301
LeftFoot  8.99329 0.0364894 -0.510232
LeftToes  -3.34697e-010 -1.70107e-010 -9.05613e-011
140
root  -47.4733 39.0968 -5.70317 173.004 10.2657 177.461
RightUpLeg  17.7594 -5.37325 -7.68594
RightLeg  24.652 1.16164 0.330623
RightFoot  -19.4008 0.420563 8.19728
RightToes  1.74622e-010 0 -3.6325e-017
Spine  1.89752 3.04377 9.71787
Spine1  11.383 5.64842 -8.08435
HEad  -8.85027 -0.239505 0.019711
LeftShoulder1  8.24612 -11.2892 -48.6516
LeftArm  -8.90712 31.3324 -28.4619
LeftForeArm  27.619 -6.26542 -5.18216
LeftHand  -0.244104 0.0205437 5.32207
RightShoulder  7.10698 10.9644 42.7959
RightArm  11.7123 9.89195 33.0087
RightForeArm  -4.05353 30.4104 6.83935
RightHand  -1.29983 2.93612 -18.2167
LeftUpLeg  -18.1683 12.3776 -2.68417
LeftLeg  13.2921 5.46215 0.280269
LeftFoot  9.94619 -0.559905 2.69468
LeftToes  -3.34697e-010 -1.70107e-010 -9.05613e-011
141
root  -47.6232 39.153 -7.15272 172.543 9.79664 175.72
RightUpLeg  14.7184 -3.35912 -9.48673
RightLeg  33.476 -0.974664 -0.989122
RightFoot  -12.335 0.0360244 12.8418
RightToes  1.74622e-010 0 -3.6325e-017
Spine  1.79979 2.99527 7.15103
Spine1  10.9898 5.48098 -7.96756
HEad  -8.48292 -0.177998 0.643503
LeftShoulder1  8.11978 -11.1139 -48.4794
LeftArm  -9.33459 30.5423 -27.7394
LeftForeArm  26.6149 -6.77362 -5.04266
LeftHand  -0.244104 0.0205437 5.32207
RightShoulder  7.23176 10.9697 43.5757
RightArm  12.7746 7.21029 33.4456
RightForeArm  -4.97083 25.6007 5.84328
RightHand  -1.49061 3.93071 -18.6847
LeftUpLeg  -17.6362 13.8992 -5.65052
LeftLeg  16.5754 3.7048 1.34721
LeftFoot  7.37901 -0.621078 3.46779
LeftToes  -3.34697e-010 -1.70107e-010 -9.05613e-011
142
root  -47.782 39.2876 -8.42174 172.084 9.44978 174.312
RightUpLeg  8.77447 -1.77881 -10.7235
RightLeg  45.0232 -2.81915 -3.32575
RightFoot  -0.745389 -1.03125 11.5922
RightToes  1.74622e-010 0 -3.6325e-017
Spine  2.57696 2.76096 5.36413
Spine1  10.3688 5.27447 -8.29187
HEad  -8.83157 -0.157772 0.35735
LeftShoulder1  8.14952 -11.2334 -48.2612
LeftArm  -9.8512 28.5612 -27.207
LeftForeArm  25.9875 -7.3683 -4.92347
LeftHand  -0.244104 0.0205437 5.32207
RightShoulder  7.18666 10.9128 43.4687
RightArm  10.5662 5.05678 34.962
RightForeArm  -3.52078 18.4494 6.1885
RightHand  -1.50185 4.20122 -18.2967
LeftUpLeg  -15.7363 13.9824 -7.31532
LeftLeg  17.8995 3.92885 1.71134
LeftFoot  3.68502 -0.393654 2.8151
LeftToes  -3.34697e-010 -1.70107e-010 -9.05613e-011
143
root  -47.9073 39.4272 -9.5227 171.406 9.87681 173.06
RightUpLeg  1.81106 0.202057 -11.3544
RightLeg  55.4367 -3.12701 -5.25459
RightFoot  8.65461 -1.16353 6.82563
RightToes  1.74622e-010 0 -3.6325e-017
Spine  4.09989 2.74578 3.52559
Spine1  9.97912 5.08485 -8.23008
HEad  -9.89168 -0.13306 -1.20016
LeftShoulder1  8.35231 -11.4899 -48.62
LeftArm  -10.102 25.8882 -26.6001
LeftForeArm  25.593 -8.76326 -4.96126
LeftHand  -0.244104 0.0205437 5.32207
RightShoulder  7.16972 11.044 42.9463
RightArm  1.14156 3.70508 35.8061
RightForeArm  5.51234 9.81094 8.58377
RightHand  -1.24839 3.27014 -16.8503
LeftUpLeg  -13.1833 14.3137 -8.25605
LeftLeg  17.8926 4.18646 1.35734
LeftFoot  1.33392 -0.286269 2.51503
LeftToes  -3.34697e-010 -1.70107e-010 -9.05613e-011
144
root  -48.0174 39.6389 -10.5991 170.753 10.2749 172.681
RightUpLeg  -4.25468 1.31192 -11.141
RightLeg  62.2049 -2.63457 -5.94745
RightFoot  10.9725 -0.721116 3.98597
RightToes  1.74622e-010 0 -3.6325e-017
Spine  5.57322 2.53932 2.39326
Spine1  9.74183 4.53346 -7.32547
HEad  -11.1729 0.174022 -3.01227
LeftShoulder1  8.56126 -11.6506 -49.3126
LeftArm  -9.779 22.9706 -25.9288
LeftForeArm  24.7451 -11.3255 -4.96207
LeftHand  -0.244104 0.0205437 5.32207
RightShoulder  7.33641 11.3734 42.9706
RightArm  -2.6082 2.49112 35.5284
RightForeArm  10.9968 3.29846 8.29601
RightHand  -0.968688 1.95587 -15.4446
LeftUpLeg  -10.2835 13.4951 -7.98674
LeftLeg  17.263 5.55632 0.67999
LeftFoot  0.0469689 -0.271265 2.71711
LeftToes  -3.34697e-010 -1.70107e-010 -9.05613e-011
145
root  -48.1281 39.9302 -11.6611 170.505 9.8046 173.27
RightUpLeg  -9.1236 0.831062 -10.2532
RightLeg  64.6623 -2.22619 -5.74933
RightFoot  8.86971 -0.703485 4.31424
RightToes  1.74622e-010 0 -3.6325e-017
Spine  6.64475 1.86398 2.21067
Spine1  9.55019 3.54564 -6.13216
HEad  -12.1901 0.722541 -3.92249
LeftShoulder1  8.6232 -11.6697 -49.6055
LeftArm  -9.04647 20.0396 -25.5466
LeftForeArm  23.1496 -14.9645 -4.54383
LeftHand  -0.244104 0.0205437 5.32207
RightShoulder  7.54842 11.634 43.4819
RightArm  -3.13618 0.394835 34.4496
RightForeArm  14.8716 0.417506 7.60627
RightHand  -0.855554 1.28553 -14.9831
LeftUpLeg  -7.27377 11.6628 -7.14762
LeftLeg  15.9215 7.13024 0.171724
LeftFoot  -1.18061 -0.22827 2.64085
LeftToes  -3.34697e-010 -1.70107e-010 -9.05613e-011
146
root  -48.2138 40.1357 -12.6734 170.509 8.80363 174.1
RightUpLeg  -13.1547 -0.323489 -9.19733
RightLeg  63.4461 -2.19494 -5.36266
RightFoot  6.77397 -0.827962 5.46712
RightToes  1.74622e-010 0 -3.6325e-017
Spine  7.58976 1.159 1.97457
Spine1  9.36427 2.45921 -4.97729
HEad  -12.9494 1.23605 -4.11023
LeftShoulder1  8.54987 -11.6105 -49.3761
LeftArm  -8.95542 17.3326 -25.5201
LeftForeArm  21.9244 -19.5209 -3.90261
LeftHand  -0.244104 0.0205437 5.32207
RightShoulder  7.57912 11.6542 43.6064
RightArm  -3.143 -3.07925 33.3762
RightForeArm  16.6755 0.914097 7.36956
RightHand  -0.796218 0.95978 -14.6361
LeftUpLeg  -4.88389 9.74838 -6.399
LeftLeg  15.1518 7.93815 -0.245052
LeftFoot  -2.74988 -0.162451 2.38831
LeftToes  -3.34697e-010 -1.70107e-010 -9.05613e-011
147
root  -48.2616 40.2898 -13.6816 170.389 7.86422 174.726
RightUpLeg  -16.1208 -1.36332 -8.13251
RightLeg  58.9336 -3.01815 -5.84373
RightFoot  6.08679 -0.68056 4.7044
RightToes  1.74622e-010 0 -3.6325e-017
Spine  8.59674 0.702014 1.16001
Spine1  9.09764 1.49395 -3.48414
HEad  -13.7276 1.65267 -4.30854
LeftShoulder1  8.45309 -11.5172 -49.1202
LeftArm  -10.7403 15.1409 -25.3752
LeftForeArm  22.9612 -24.9986 -4.06364
LeftHand  -0.244104 0.0205437 5.32207
RightShoulder  7.43375 11.5145 43.1426
RightArm  -2.48644 -7.26395 32.4436
RightForeArm  15.2236 3.35475 7.65779
RightHand  -0.65503 0.290713 -13.4199
LeftUpLeg  -2.5513 7.91514 -5.76198
LeftLeg  14.4645 8.56613 -0.921864
LeftFoot  -3.84823 -0.141967 2.52642
LeftToes  -3.34697e-010 -1.70107e-010 -9.05613e-011
